<?xml version="1.0" encoding="utf-8"?>
<svg version="1.1" x="0px" y="0px" style="enable-background:new 0 0 100 100;" viewBox="0 0 80 80" xmlns="http://www.w3.org/2000/svg">
  <g transform="matrix(1.004016, 0, 0, 1.004016, -10.240935, -10.180719)">
    <path d="M89.88,50c0-0.02-0.02-0.02-0.02-0.04s0.02-0.04,0-0.06c0-0.02-0.04-0.04-0.04-0.08c-0.02-0.04-0.04-0.08-0.08-0.12  c-0.02-0.04-0.04-0.06-0.06-0.08c-0.04-0.02-0.08-0.04-0.12-0.06c-0.04,0-0.06-0.04-0.1-0.06l-29.69-5.61l6.84-10.02  c0-0.02,0-0.06,0.02-0.06c0-0.04,0.02-0.06,0.02-0.1c0-0.02,0-0.04-0.02-0.04c0.02-0.02,0-0.04,0-0.06c-0.02-0.04,0-0.06-0.02-0.08  c0-0.02-0.02-0.02-0.02-0.02c-0.02,0-0.02,0-0.02-0.02c-0.02,0-0.02,0-0.02-0.02c-0.02,0-0.02-0.02-0.02-0.02  c-0.02,0-0.04,0-0.06-0.02c-0.02,0-0.04-0.02-0.08-0.02H66.3c-0.02,0-0.04,0.02-0.08,0.02c0,0.02-0.04,0.02-0.06,0.02l-10.02,6.84  L50.5,10.54c0-0.02-0.04-0.04-0.04-0.08c-0.02-0.04-0.04-0.08-0.08-0.12c-0.02-0.04-0.04-0.04-0.06-0.08  c-0.04-0.02-0.08-0.04-0.12-0.04c-0.04-0.02-0.04-0.06-0.08-0.06c-0.02-0.02-0.04,0-0.06,0s-0.02-0.02-0.04-0.02  s-0.04,0.02-0.04,0.02c-0.02,0-0.04-0.02-0.06,0c-0.04,0-0.06,0.04-0.08,0.06c-0.06,0-0.1,0.02-0.12,0.04  c-0.04,0.04-0.06,0.04-0.08,0.08s-0.04,0.08-0.06,0.12c-0.02,0.04-0.04,0.06-0.06,0.08l-5.61,29.71l-10.04-6.84  c0,0-0.02,0-0.04-0.02c-0.02,0-0.06-0.02-0.08-0.02c-0.04,0-0.04,0-0.06,0s-0.06,0.02-0.08,0.04c-0.02,0-0.02,0-0.04,0  s-0.02,0.02-0.04,0.02c0,0.02,0,0.02-0.02,0.02v0.02c-0.02,0-0.04,0-0.04,0.02v0.06c-0.02,0.02-0.04,0.06-0.04,0.06v0.08  c0.02,0.02,0.02,0.04,0.04,0.08c0,0.02,0,0.04,0,0.04l6.84,10.04l-29.71,5.61c-0.02,0.02-0.04,0.06-0.08,0.06  c-0.04,0.02-0.08,0.04-0.12,0.06c-0.04,0.02-0.04,0.04-0.06,0.08c-0.04,0.04-0.06,0.08-0.08,0.12c0,0.04-0.04,0.06-0.04,0.08  c-0.02,0.02,0,0.04,0,0.06s-0.02,0.02-0.02,0.04s0.02,0.02,0.02,0.04c0,0.02-0.02,0.04,0,0.06c0,0.04,0.04,0.06,0.04,0.1  c0.02,0.04,0.04,0.08,0.08,0.1c0,0.02,0.02,0.04,0.04,0.06c0.04,0.04,0.1,0.06,0.15,0.08c0.04,0,0.06,0.04,0.08,0.06l29.71,5.61  l-6.84,10.02v0.06c-0.02,0.02-0.02,0.06-0.04,0.08c0,0.02,0,0.02,0.02,0.06c0,0.02,0,0.06,0.02,0.08c0,0.02,0,0.04,0,0.04  c0,0.02,0.02,0.02,0.04,0.04c0,0,0,0,0,0.02h0.02c0.02,0.02,0.02,0.04,0.04,0.04c0,0,0.04,0,0.04,0.02c0.04,0,0.06,0.02,0.08,0  c0.02,0.02,0.02,0.02,0.04,0.02c0.04,0,0.08-0.02,0.1-0.04h0.06l10.02-6.84l5.61,29.71c0.02,0.04,0.04,0.06,0.06,0.1  c0.02,0.04,0.04,0.08,0.06,0.1c0.02,0.02,0.02,0.04,0.04,0.06c0.04,0.04,0.1,0.06,0.17,0.08c0.04,0,0.04,0.04,0.08,0.04  c0.04,0.02,0.06,0.02,0.1,0.02c0.02,0,0.06,0,0.1-0.02c0.02,0,0.04-0.04,0.08-0.04c0.06-0.02,0.1-0.04,0.15-0.08  c0.02-0.02,0.04-0.04,0.04-0.06c0.04-0.02,0.06-0.06,0.06-0.1c0.02-0.04,0.06-0.06,0.06-0.1l5.63-29.71l10.02,6.84  c0.04,0,0.06,0,0.08,0.02c0.02,0,0.04,0.02,0.06,0.02c0.02,0,0.02,0,0.04,0c0.04,0,0.08-0.02,0.1-0.04h0.06  c0.02-0.02,0.02-0.02,0.04-0.04c0.02-0.02,0.02-0.02,0.04-0.06c0,0,0-0.02,0.02-0.04c0-0.04,0.02-0.06,0.02-0.1  c0-0.02,0-0.02-0.02-0.04c0.02-0.02,0-0.04,0-0.06c-0.02-0.02,0-0.06-0.02-0.06l-6.84-10.04l29.69-5.61  c0.04-0.02,0.06-0.06,0.1-0.06c0.04-0.02,0.1-0.04,0.15-0.08c0.02-0.02,0.04-0.04,0.04-0.06c0.04-0.02,0.04-0.06,0.06-0.1  s0.06-0.06,0.06-0.1c0.02-0.02,0-0.04,0-0.06C89.86,50.02,89.88,50.02,89.88,50z M43.55,55.7l-2.66-0.5l-24.7-4.68h27.88h4.68  L43.55,55.7z M49.48,44.07v4.68l-5.18-5.2l0.5-2.66l4.68-24.7V44.07z M55.2,59.11l-4.68,24.7V55.93v-4.68l5.18,5.2L55.2,59.11z   M55.93,49.48h-4.68l5.2-5.18l2.66,0.5l24.7,4.68H55.93z" style="fill: rgb(29, 78, 216);"/>
    <path d="M45.76,19l0.42-2.14c-15.34,1.75-27.55,13.95-29.32,29.3l2.14-0.4C20.89,31.89,31.89,20.89,45.76,19z" style="fill: rgb(29, 78, 216);"/>
    <path d="M54.22,81l-0.42,2.14C69.17,81.4,81.4,69.19,83.14,53.83L81,54.24C79.11,68.11,68.11,79.13,54.22,81z" style="fill: rgb(29, 78, 216);"/>
    <path d="M81,45.76l2.14,0.42C81.4,30.83,69.17,18.6,53.83,16.86l0.4,2.14C68.11,20.87,79.11,31.89,81,45.76z" style="fill: rgb(29, 78, 216);"/>
    <path d="M19,54.22l-2.14-0.4C18.6,69.17,30.83,81.4,46.17,83.14L45.76,81C31.89,79.11,20.87,68.11,19,54.22z" style="fill: rgb(29, 78, 216);"/>
  </g>
</svg>